<svg xmlns="http://www.w3.org/2000/svg" width="1134" height="1024"><path d="M1078.857 841.143H731.428v91.429l73.143 73.143v18.286H329.142v-18.286l73.143-73.143v-91.429H54.856c-30.297 0-54.857-24.56-54.857-54.857V54.857C-.001 24.56 24.559 0 54.856 0h1024c30.297 0 54.857 24.56 54.857 54.857v731.429c0 30.297-24.56 54.857-54.857 54.857zm-18.286-768H73.142v621.714h987.429V73.143zm-603.428 256c15.139.035 28.837 6.177 38.766 16.092l34.376 34.376 107.52-107.52c10.042-10.756 24.305-17.46 40.134-17.46 30.297 0 54.857 24.56 54.857 54.857 0 15.829-6.704 30.092-17.428 40.105l-.032.029L569.05 495.908c-9.925 9.913-23.629 16.043-38.766 16.043s-28.841-6.13-38.766-16.044l-73.142-73.142c-9.913-9.925-16.043-23.629-16.043-38.766 0-30.28 24.533-54.83 54.806-54.857h.003z"/></svg>