<!-- Generated by IcoMoon.io -->
<svg version="1.1" xmlns="http://www.w3.org/2000/svg" width="1024" height="1024" viewBox="0 0 1024 1024">
<title></title>
<g id="icomoon-ignore">
</g>
<path d="M976 1024h-928c-26.51 0-48-21.49-48-48v0-928c0-26.51 21.49-48 48-48v0h928c26.51 0 48 21.49 48 48v0 928c0 26.51-21.49 48-48 48v0zM928 96h-832v832h832v-832zM166.88 519.68v0l128-80c7.196-4.42 15.912-7.039 25.238-7.039 9.96 0 19.223 2.986 26.942 8.111l-0.18-0.112h0.192l212.192 141.44 244.416-172.8c7.81-5.721 17.608-9.155 28.208-9.155 26.529 0 48.035 21.506 48.035 48.035 0 15.929-7.753 30.047-19.692 38.786l-0.135 0.094-272 192c-7.756 5.772-17.517 9.251-28.089 9.28h-0.007c-10.347-0.095-19.895-3.438-27.695-9.058l0.143 0.098-213.024-141.76-100.32 62.72c-7.611 5.169-16.99 8.271-27.092 8.32h-0.012c-0.028 0-0.061 0-0.095 0-26.51 0-48-21.49-48-48 0-17.254 9.103-32.381 22.769-40.842l0.206-0.119z"></path>
</svg>
