<!-- Generated by IcoMoon.io -->
<svg version="1.1" xmlns="http://www.w3.org/2000/svg" width="1024" height="1024" viewBox="0 0 1024 1024">
<title></title>
<g id="icomoon-ignore">
</g>
<path d="M976 1024h-928c-26.51 0-48-21.49-48-48v0-928c0-26.51 21.49-48 48-48v0h928c26.51 0 48 21.49 48 48v0 928c0 26.51-21.49 48-48 48v0zM928 96h-832v832h832v-832zM208 144h176c26.51 0 48 21.49 48 48s-21.49 48-48 48v0h-144v144c0 26.51-21.49 48-48 48s-48-21.49-48-48v0 0-240h64zM144 640v0c0-26.51 21.49-48 48-48s48 21.49 48 48v0 0 144h144c26.51 0 48 21.49 48 48s-21.49 48-48 48v0h-240v-240zM640 144h240v240c0 26.51-21.49 48-48 48s-48-21.49-48-48v0 0-144h-144c-26.51 0-48-21.49-48-48s21.49-48 48-48v0zM640 784h144v-144c0-26.51 21.49-48 48-48s48 21.49 48 48v0 0 240h-240c-26.51 0-48-21.49-48-48s21.49-48 48-48v0z"></path>
</svg>
