<!-- Generated by IcoMoon.io -->
<svg version="1.1" xmlns="http://www.w3.org/2000/svg" width="1074" height="1024" viewBox="0 0 1074 1024">
<title></title>
<g id="icomoon-ignore">
</g>
<path d="M1074.361 537.18c0 0.063 0 0.138 0 0.213 0 27.684-22.442 50.126-50.126 50.126-13.369 0-25.516-5.234-34.503-13.764l0.022 0.021v0.336l-452.474-452.574-451.433 451.567c-9.139 8.867-21.597 14.358-35.338 14.437h-0.015c-27.813 0-50.361-22.547-50.361-50.361v0c0-0.071-0.001-0.154-0.001-0.238 0-14.171 5.936-26.955 15.457-36.002l0.021-0.020 485.41-485.477c9.197-9.496 22.051-15.403 36.286-15.444h3.097c0.772 0 1.511 0.336 2.283 0.336v0c12.469 1.359 23.377 7.152 31.293 15.745l0.032 0.035 198.085 198.085v-46.332c0-27.813 22.547-50.361 50.361-50.361s50.361 22.547 50.361 50.361v0 147.053l188.013 188.013c8.38 8.899 13.53 20.922 13.53 34.148 0 0.034 0 0.068 0 0.102v-0.005zM973.639 621.115v352.525c0 27.813-22.547 50.361-50.361 50.361v0h-100.721v-402.885h-201.443v402.885h-470.033c-27.813 0-50.361-22.547-50.361-50.361v0-352.525l436.459-436.459zM453.246 621.115h-201.443v201.443h201.443v-201.443z"></path>
</svg>
