<!-- Generated by IcoMoon.io -->
<svg version="1.1" xmlns="http://www.w3.org/2000/svg" width="1074" height="1024" viewBox="0 0 1074 1024">
<title></title>
<g id="icomoon-ignore">
</g>
<path d="M1032.058 318.951c-54.538-124.691-152.033-222.153-273.355-275.322l-3.394-1.326c33.221-26.408 75.778-42.369 122.063-42.369 108.806 0 197.011 88.205 197.011 197.011 0 46.26-15.944 88.795-42.636 122.412l0.311-0.406zM1024 537.18c0 0.021 0 0.046 0 0.070 0 129.377-50.671 246.919-133.251 333.863l0.198-0.21 68.121 68.155c9.005 9.004 14.576 21.444 14.576 35.185 0 27.48-22.277 49.756-49.756 49.756-0.013 0-0.027 0-0.040 0h0.002c-13.716-0.059-26.138-5.557-35.228-14.446l-73.115-73.182c-77.586 54.823-174.128 87.628-278.332 87.628-103.998 0-200.363-32.676-279.391-88.32l1.54 1.028-72.62 72.519c-9.172 9.496-22.017 15.391-36.24 15.391-27.813 0-50.361-22.547-50.361-50.361 0-14.206 5.882-27.038 15.343-36.194l0.014-0.013 67.55-67.483c-81.948-86.896-132.314-204.356-132.314-333.579 0-268.77 217.881-486.652 486.652-486.652s486.652 217.881 486.652 486.652c0 0.067 0 0.135 0 0.202v-0.011zM537.18 151.082c-213.236 0-386.098 172.862-386.098 386.098s172.862 386.098 386.098 386.098c213.236 0 386.098-172.862 386.098-386.098v0c0-213.236-172.862-386.098-386.098-386.098v0zM738.623 587.541h-201.443c-27.813 0-50.361-22.547-50.361-50.361v0-268.59c0-27.813 22.547-50.361 50.361-50.361s50.361 22.547 50.361 50.361v0 218.23h151.082c27.813 0 50.361 22.547 50.361 50.361s-22.547 50.361-50.361 50.361v0zM43.209 326.001c-27.045-33.96-43.395-77.485-43.395-124.83 0-111.142 90.099-201.241 201.241-201.241 47.336 0 90.854 16.343 125.221 43.695l-0.41-0.315c-127.49 55.552-227.12 155.193-281.309 279.228l-1.348 3.463z"></path>
</svg>
