<!-- Generated by IcoMoon.io -->
<svg version="1.1" xmlns="http://www.w3.org/2000/svg" width="1024" height="1024" viewBox="0 0 1024 1024">
<title></title>
<g id="icomoon-ignore">
</g>
<path d="M994.080 828.48l-463.072 191.68c-5.611 2.428-12.144 3.84-19.008 3.84s-13.397-1.412-19.326-3.962l0.318 0.122-463.072-191.68c-17.698-7.335-29.92-24.473-29.92-44.465 0-0.005 0-0.011 0-0.016v0.001-736c0-26.51 21.49-48 48-48v0c6.604 0.002 12.906 1.295 18.668 3.639l-0.332-0.119v0.32h0.416l445.248 184.32 445.568-184.64c5.43-2.225 11.732-3.518 18.335-3.52h0.001c26.51 0 48 21.49 48 48v0 736c0 0.016 0 0.035 0 0.054 0 19.956-12.178 37.067-29.507 44.308l-0.317 0.117zM464 272l-368-152.32v632.32l368 152.32v-632.32zM928 119.68l-368 152.32v632.32l368-152.32v-632.32zM636.128 340.16l176-80c5.855-2.59 12.68-4.116 19.856-4.16h0.016c0.098-0.001 0.213-0.001 0.328-0.001 26.51 0 48 21.49 48 48 0 19.433-11.548 36.168-28.155 43.719l-0.301 0.123-176 80c-5.856 2.584-12.679 4.11-19.853 4.16h-0.019c-0.098 0.001-0.213 0.001-0.328 0.001-26.51 0-48-21.49-48-48 0-19.433 11.548-36.168 28.155-43.719l0.301-0.123zM636.128 516.16v0l176-80c5.855-2.59 12.68-4.116 19.856-4.16h0.016c0.098-0.001 0.213-0.001 0.328-0.001 26.51 0 48 21.49 48 48 0 19.433-11.548 36.168-28.155 43.719l-0.301 0.123-176 80v-0.32c-5.81 2.827-12.64 4.48-19.855 4.48-0.006 0-0.012 0-0.017 0h0.001c-0.098 0.001-0.213 0.001-0.328 0.001-26.51 0-48-21.49-48-48 0-19.433 11.548-36.168 28.155-43.719l0.301-0.123zM636.128 692.16v0l176-80c5.855-2.59 12.68-4.116 19.856-4.16h0.016c0.098-0.001 0.213-0.001 0.328-0.001 26.51 0 48 21.49 48 48 0 19.433-11.548 36.168-28.155 43.719l-0.301 0.123-176 80c-5.856 2.584-12.679 4.11-19.853 4.16h-0.019c-0.098 0.001-0.213 0.001-0.328 0.001-26.51 0-48-21.49-48-48 0-19.433 11.548-36.168 28.155-43.719l0.301-0.123zM192 256c7.193 0.050 14.016 1.576 20.201 4.289l-0.329-0.129 176 80c16.909 7.673 28.456 24.409 28.456 43.841 0 26.51-21.49 48-48 48-0.115 0-0.231 0-0.346-0.001h0.018c-7.192-0.044-14.017-1.57-20.199-4.288l0.327 0.128-176-80c-16.909-7.673-28.456-24.409-28.456-43.841 0-26.51 21.49-48 48-48 0.115 0 0.231 0 0.346 0.001h-0.018zM192 432c7.193 0.050 14.016 1.576 20.201 4.289l-0.329-0.129 176 80c16.909 7.673 28.456 24.409 28.456 43.841 0 26.51-21.49 48-48 48-0.115 0-0.231 0-0.346-0.001h0.018c-0.018 0-0.039 0-0.060 0-7.201 0-14.016-1.653-20.086-4.6l0.274 0.12v0.32l-176-80c-16.909-7.673-28.456-24.409-28.456-43.841 0-26.51 21.49-48 48-48 0.115 0 0.231 0 0.346 0.001h-0.018zM192 608c7.193 0.050 14.016 1.576 20.201 4.289l-0.329-0.129 176 80c16.909 7.673 28.456 24.409 28.456 43.841 0 26.51-21.49 48-48 48-0.115 0-0.231 0-0.346-0.001h0.018c-7.192-0.044-14.017-1.57-20.199-4.288l0.327 0.128-176-80c-16.909-7.673-28.456-24.409-28.456-43.841 0-26.51 21.49-48 48-48 0.115 0 0.231 0 0.346 0.001h-0.018z"></path>
</svg>
